Motion_kv01_l
version=1
nRows=5
nColumns=43
inDegrees=yes
endheader
time	pelvis_tilt	pelvis_list	pelvis_rotation	pelvis_tx	pelvis_ty	pelvis_tz	hip_flexion_r	hip_adduction_r	hip_rotation_r	knee_angle_r	ankle_angle_r	subtalar_angle_r	mtp_angle_r	hip_flexion_l	hip_adduction_l	hip_rotation_l	knee_angle_l	ankle_angle_l	subtalar_angle_l	mtp_angle_l	lumbar_extension	lumbar_bending	lumbar_rotation	neck_flexion	neck_lateral_bending	neck_rotation	arm_flex_r	arm_add_r	arm_rot_r	elbow_flex_r	pro_sup_r	wrist_flex_r	wrist_dev_r	hand_finger_flex_r	arm_flex_l	arm_add_l	arm_rot_l	elbow_flex_l	pro_sup_l	wrist_flex_l	wrist_dev_l	hand_finger_flex_l
      0.47250000	      7.78882424	    -58.76988128	     98.00482388	      0.00524396	      1.39870461	      1.35021387	     79.59374223	     -4.09936751	    -10.03856605	   -102.97552542	     22.51500230	    -15.81982736	    -10.28063989	     71.60635940	      0.58928395	      6.69187937	    -95.46241809	     29.88809688	     -2.82402690	    -18.92989405	    -41.77364109	      2.00077852	      0.54136200	     59.99999993	      2.66700404	      4.01837937	    229.89770868	   -144.95440183	    195.74461249	     70.59781429	    147.94854841	    -51.95906309	    -19.46748450	     80.91842368	     47.64013965	    -34.75389948	     13.77050396	     74.35292606	    163.93196089	    -68.88292644	    -10.99416511	     90.00021046
      0.47500000	      7.86853512	    -58.51952139	     98.06838041	      0.00522746	      1.40295977	      1.34782796	     80.25929432	     -4.08972181	    -10.07626869	   -104.53166546	     22.88703942	    -15.40775538	    -10.09609014	     72.28691393	      0.67186697	      6.72644182	    -97.21137626	     30.20029097	     -2.54274142	    -18.81166963	    -42.29419572	      2.09717362	      0.58137249	     59.99999993	      2.63465847	      4.09453993	    230.75961149	   -145.23924338	    196.24653106	     69.68027857	    147.96206678	    -51.86189251	    -19.67728652	     80.98525724	     48.41871611	    -34.58187615	     14.21479527	     73.40781029	    163.95370892	    -68.93693444	    -11.06402109	     90.00021046
      0.47750000	      7.98025298	    -58.27766787	     98.18233036	      0.00514402	      1.40712936	      1.34543839	     80.92101119	     -4.11302719	    -10.10836187	   -106.07119452	     23.43218000	    -14.55982951	     -9.81872358	     72.98455964	      0.74412485	      6.76889482	    -98.94898903	     30.60057558	     -1.97911111	    -18.65194827	    -42.78543427	      2.23173140	      0.60317120	     59.99999993	      2.61497307	      4.17774567	    231.61722836	   -145.59586859	    196.72432373	     68.69666990	    147.86781060	    -51.86552718	    -19.89441249	     81.05568471	     49.17742618	    -34.39142569	     14.68072082	     72.40027176	    163.85055139	    -69.21944321	    -11.06477209	     90.00021046
      0.48000000	      8.09770057	    -57.99747088	     98.31150717	      0.00503520	      1.41129646	      1.34296702	     81.52012027	     -4.18836953	    -10.19237863	   -107.57311558	     24.02306359	    -13.55155319	     -9.46927278	     73.64984376	      0.82895498	      6.82656593	   -100.67375623	     30.98919124	     -1.40327997	    -18.46032790	    -43.31194383	      2.37299078	      0.63733324	     59.99999993	      2.57995857	      4.25389393	    232.46646079	   -145.95560201	    197.19149648	     67.66158167	    147.69462405	    -51.95735902	    -20.13972572	     81.13792484	     49.95767947	    -34.17883980	     15.18200209	     71.36606539	    163.66323806	    -69.66728634	    -11.04341853	     90.00021046
      0.48250000	      8.19680539	    -57.68787508	     98.43160956	      0.00489506	      1.41548547	      1.34041565	     82.09575927	     -4.22442120	    -10.23054364	   -109.05656216	     24.52922050	    -12.65286940	     -9.12978970	     74.26753321	      0.92807154	      6.86150927	   -102.34395138	     31.32930514	     -0.90550351	    -18.27916876	    -43.86123834	      2.52383856	      0.67472376	     59.99999993	      2.54736621	      4.30553829	    233.30568282	   -146.32106122	    197.63633489	     66.63798079	    147.54832380	    -52.01268032	    -20.36546357	     81.20438762	     50.76519105	    -33.94005486	     15.70228873	     70.25584663	    163.49850536	    -70.02138751	    -11.04006734	     90.00021046
